
		<svg xmlns="http://www.w3.org/2000/svg" xmlns:xlink="http://www.w3.org/1999/xlink" version="1.1" width="3000" height="3187.5">
			
			<g transform="scale(9.375) translate(10, 10)">
				<defs id="SvgjsDefs1366"><linearGradient id="SvgjsLinearGradient1370"><stop id="SvgjsStop1371" stop-color="#b88746" offset="0"></stop><stop id="SvgjsStop1372" stop-color="#fdf5a6" offset="1"></stop></linearGradient></defs><g id="SvgjsG1367" featureKey="root" fill="#000000"></g><g id="SvgjsG1368" featureKey="container1" fill="url(#SvgjsLinearGradient1370)" transform="matrix(1.5266554374831305,0,0,1.5266554374831305,0,5)"><defs xmlns="http://www.w3.org/2000/svg"></defs><g xmlns="http://www.w3.org/2000/svg">  <path d="M98.254,0C44.077,0,0,44.076,0,98.254s44.077,98.254,98.254,98.254c54.177,0,98.254-44.076,98.254-98.254    S152.431,0,98.254,0z M98.254,195.508C44.628,195.508,1,151.88,1,98.254S44.628,1,98.254,1c53.626,0,97.254,43.628,97.254,97.254    S151.88,195.508,98.254,195.508z"></path>  <path d="M98.254,5.453c-51.171,0-92.801,41.63-92.801,92.801s41.63,92.801,92.801,92.801s92.802-41.63,92.802-92.801    S149.425,5.453,98.254,5.453z"></path></g></g><g id="SvgjsG1369" featureKey="text1" fill="#000000" transform="matrix(6.117575043890628,0,0,6.117575043890628,50,50.90423184365861)"><path d="M3.52 17.22 l3.32 0 l0 1.92 l0 2.08 c0 2.12 -1.72 3.18 -3.42 3.18 c-1.72 0 -3.42 -1.06 -3.42 -3.18 l0 -8.38 c0 -2.12 1.7 -3.18 3.42 -3.18 c1.7 0 3.42 1.06 3.42 3.18 l0 2.08 l-1.96 0 l0 -2.38 c0 -0.7 -0.74 -1.04 -1.46 -1.04 c-0.74 0 -1.46 0.34 -1.46 1.04 l0 9.1 c0 0.72 0.72 1.06 1.46 1.06 c0.72 0 1.46 -0.34 1.46 -1.06 l0 -2.48 l-1.36 0 l0 -1.94 z M15.54 16.44 c0 1.46 -0.86 2.5 -2.2 2.74 l2.2 4.82 l-2.1 0 l-2.16 -4.76 l-0.48 0 l0 4.76 l-1.96 0 l0 -14 l3.9 0 c1.68 0 2.8 1.12 2.8 2.8 l0 3.64 z M13.58 15.9 l0 -2.56 c0 -1.02 -0.36 -1.38 -1.4 -1.38 l-1.38 0 l0 5.32 l1.38 0 c1.04 0 1.4 -0.36 1.4 -1.38 z M24.38 12.84 l0 1.96 c0 0.72 -0.22 1.36 -0.6 1.84 c0.36 0.46 0.56 1.08 0.56 1.8 l0 2.8 c0 1.66 -1.12 2.8 -2.8 2.8 l-4 0 l0 -14 l4.04 0 c1.68 0 2.8 1.14 2.8 2.8 z M21.02 12 l-1.52 0 l0 3.64 l1.52 0 c1.04 0 1.4 -0.38 1.4 -1.38 l0 -0.88 c0 -1 -0.36 -1.38 -1.4 -1.38 z M22.4 20.7 l0 -1.72 c0 -1.02 -0.38 -1.38 -1.42 -1.38 l-1.48 0 l0 4.48 l1.48 0 c1.04 0 1.42 -0.38 1.42 -1.38 z M32.66 11.98 l-4.32 0 l0 3.22 l3.62 0 l0 1.96 l-3.62 0 l0 4.92 l4.32 0 l0 1.94 l-4.32 0 l-1.96 0 l0 -13.98 l6.28 0 l0 1.94 z"></path></g>
			</g>
		</svg>
	